<svg width="130" height="132" viewBox="0 0 130 132" fill="none" xmlns="http://www.w3.org/2000/svg">
<g clip-path="url(#clip0_90_1699)">
<path d="M2.69187 129.363C0.897289 127.608 0 125.19 0 122.11V115.194C0 112.12 0.897289 109.701 2.69187 107.937C4.48645 106.172 7.01094 105.295 10.2654 105.304C12.8131 105.304 14.9006 105.833 16.5278 106.89C18.1828 107.985 19.4049 109.614 19.9868 111.501C20.0814 111.755 20.1302 112.023 20.1309 112.294C20.1309 112.824 19.7776 113.216 19.0755 113.414L15.6909 114.461C15.4578 114.55 15.2108 114.599 14.961 114.604C14.8459 114.606 14.7316 114.585 14.6252 114.541C14.5188 114.497 14.4226 114.432 14.3427 114.35C14.1337 114.111 13.9841 113.827 13.9057 113.52C13.6887 112.773 13.2193 112.121 12.576 111.676C11.8922 111.265 11.1015 111.063 10.3026 111.095C8.9171 111.095 7.93458 111.427 7.35498 112.091C6.76919 112.75 6.48094 113.783 6.48094 115.176V122.179C6.48094 123.575 6.79088 124.604 7.41077 125.268C8.03066 125.932 9.03178 126.263 10.4141 126.26C12.9154 126.26 14.166 125.338 14.166 123.493V122.267H10.6652C10.4705 122.29 10.2731 122.273 10.0851 122.218C9.89719 122.162 9.72276 122.069 9.57263 121.944C9.34384 121.603 9.24191 121.194 9.28438 120.787V118.366C9.24548 117.955 9.34698 117.542 9.57263 117.195C9.71962 117.064 9.89305 116.965 10.0814 116.906C10.2698 116.846 10.4688 116.827 10.6652 116.849H19.0616C19.2637 116.828 19.4679 116.848 19.6621 116.908C19.8562 116.967 20.0363 117.065 20.1913 117.195C20.4426 117.532 20.5586 117.949 20.5168 118.366V123.313C20.5403 124.887 20.1252 126.436 19.3173 127.79C18.4787 129.149 17.2567 130.235 15.8025 130.912C14.0787 131.711 12.1908 132.101 10.2886 132.051C7.02489 132.017 4.49264 131.121 2.69187 129.363Z" fill="white"/>
<path d="M23.7713 131.152C23.5476 130.857 23.4431 130.491 23.4784 130.124V115.863C23.4498 115.395 23.5443 114.928 23.7527 114.507C24.0298 114.137 24.4193 113.866 24.8639 113.732C25.7728 113.409 26.7054 113.155 27.6534 112.972C28.8816 112.763 30.1267 112.667 31.3727 112.686H33.2324C33.596 112.65 33.96 112.752 34.2505 112.972C34.4768 113.26 34.5818 113.623 34.5434 113.986V116.619C34.5823 116.998 34.4779 117.377 34.2505 117.684C34.1107 117.801 33.9484 117.889 33.7734 117.942C33.5984 117.995 33.4143 118.012 33.2324 117.993H31.5587C30.9432 117.963 30.3272 118.037 29.7362 118.209C29.7048 118.211 29.6741 118.219 29.6459 118.233C29.6177 118.247 29.5926 118.266 29.5722 118.29C29.5518 118.314 29.5364 118.341 29.5271 118.371C29.5177 118.401 29.5145 118.432 29.5177 118.463V130.124C29.5569 130.493 29.4612 130.865 29.248 131.17C29.1083 131.282 28.9476 131.365 28.7753 131.415C28.6029 131.465 28.4222 131.481 28.2438 131.461H24.7523C24.5762 131.477 24.3985 131.459 24.23 131.406C24.0614 131.353 23.9054 131.266 23.7713 131.152Z" fill="white"/>
<path d="M38.0256 129.962C36.6029 128.603 35.8916 126.707 35.8916 124.272V119.878C35.8916 117.447 36.6029 115.552 38.0256 114.193C39.4482 112.835 41.4954 112.151 44.1671 112.142C46.8357 112.142 48.8798 112.822 50.2994 114.184C51.7189 115.546 52.4256 117.444 52.4194 119.878V124.282C52.4194 126.716 51.7096 128.613 50.2901 129.971C48.8705 131.33 46.8295 132.006 44.1671 132C41.4923 132 39.4451 131.321 38.0256 129.962ZM44.1578 126.734C45.6363 126.734 46.3801 125.951 46.3801 124.388V119.777C46.3801 118.186 45.6363 117.393 44.1578 117.393C42.6794 117.393 41.9355 118.186 41.9355 119.777V124.388C41.9355 125.949 42.6794 126.73 44.1671 126.73L44.1578 126.734Z" fill="white"/>
<path d="M58.4262 131.188C58.2715 131.082 58.1403 130.945 58.0404 130.786C57.9405 130.628 57.8741 130.451 57.845 130.266L53.8793 114.235C53.7881 113.967 53.7379 113.687 53.7305 113.405C53.7211 113.296 53.7416 113.187 53.7899 113.088C53.8382 112.99 53.9125 112.907 54.0048 112.847C54.2967 112.718 54.6161 112.663 54.9347 112.686H57.9892C58.5246 112.639 59.0633 112.726 59.5559 112.939C59.7176 113.073 59.8497 113.238 59.9441 113.424C60.0385 113.611 60.0931 113.814 60.1045 114.023L61.1227 119.652C61.4009 121.383 61.5346 123.133 61.5225 124.886H61.7782C61.8439 123.132 62.0178 121.385 62.2989 119.652L63.2846 114.055C63.2955 113.845 63.3499 113.64 63.4443 113.452C63.5386 113.264 63.671 113.097 63.8332 112.962C64.333 112.751 64.8771 112.664 65.4185 112.709H67.6036C68.1375 112.662 68.6748 112.749 69.1658 112.962C69.3289 113.091 69.4638 113.252 69.5622 113.434C69.6605 113.616 69.7202 113.817 69.7376 114.023L70.793 119.652C70.9882 120.977 71.1432 122.722 71.2579 124.886H71.5136C71.5388 123.134 71.6832 121.385 71.946 119.652L72.8758 114.055C72.8896 113.845 72.9452 113.64 73.0393 113.452C73.1335 113.264 73.2644 113.096 73.4244 112.958C73.9109 112.729 74.4506 112.635 74.9865 112.686H77.8643C78.1936 112.661 78.5238 112.717 78.8267 112.847C78.9191 112.907 78.9934 112.99 79.0417 113.088C79.09 113.187 79.1105 113.296 79.101 113.405C79.0925 113.684 79.0567 113.962 78.9941 114.235L75.0609 130.266C75.0028 130.635 74.8008 130.966 74.4983 131.188C74.1495 131.386 73.7511 131.48 73.35 131.46H70.0351C69.6137 131.484 69.1934 131.397 68.8171 131.207C68.6647 131.099 68.5362 130.962 68.4394 130.804C68.3426 130.645 68.2797 130.468 68.2545 130.285L67.1248 124.074C66.8551 122.513 66.649 120.96 66.5064 119.417H66.2879C66.1391 120.837 65.9113 122.391 65.5952 124.074L64.3585 130.285C64.3334 130.467 64.272 130.642 64.1778 130.801C64.0836 130.959 63.9586 131.097 63.8099 131.207C63.4533 131.396 63.0512 131.483 62.6476 131.46H59.6257C59.2082 131.481 58.7932 131.387 58.4262 131.188Z" fill="white"/>
<path d="M81.6161 131.152C81.394 130.856 81.2912 130.49 81.3278 130.123V115.572C81.2964 115.11 81.3895 114.649 81.5975 114.235C81.8805 113.863 82.2666 113.581 82.7086 113.423C84.9489 112.518 87.352 112.075 89.7707 112.123C92.2968 112.123 94.1843 112.779 95.4334 114.092C96.6825 115.404 97.3024 117.289 97.2931 119.745V130.105C97.3284 130.472 97.2239 130.839 97.0002 131.133C96.8602 131.25 96.6979 131.338 96.5229 131.391C96.3479 131.444 96.1639 131.461 95.982 131.442H92.5184C92.1511 131.477 91.785 131.366 91.5002 131.133C91.2765 130.839 91.172 130.472 91.2073 130.105V119.961C91.2073 118.348 90.4913 117.541 89.0594 117.541C88.5159 117.538 87.9756 117.624 87.4601 117.794C87.4273 117.801 87.398 117.819 87.3775 117.845C87.357 117.871 87.3467 117.904 87.3485 117.937V130.105C87.3877 130.475 87.2921 130.846 87.0788 131.152C86.9394 131.264 86.7787 131.347 86.6063 131.397C86.4338 131.447 86.2531 131.462 86.0746 131.442H82.5831C82.4106 131.459 82.2363 131.442 82.0704 131.393C81.9044 131.343 81.75 131.261 81.6161 131.152Z" fill="white"/>
<path d="M102.058 129.815C100.732 128.358 100.07 126.403 100.073 123.95V120.229C100.073 117.607 100.783 115.609 102.203 114.235C103.625 112.852 105.666 112.156 108.339 112.156C111.013 112.156 113.096 112.879 114.453 114.323C115.839 115.839 116.571 117.833 116.494 119.878V122.009C116.494 123.238 115.887 123.853 114.672 123.853H106.117V124.651C106.055 125.363 106.255 126.074 106.68 126.652C106.904 126.875 107.175 127.048 107.474 127.157C107.773 127.266 108.092 127.309 108.409 127.283C108.952 127.299 109.492 127.202 109.995 126.997C110.429 126.793 110.782 126.448 110.994 126.02C111.102 125.812 111.237 125.618 111.394 125.444C111.451 125.386 111.519 125.34 111.594 125.309C111.669 125.278 111.75 125.263 111.831 125.264C112.11 125.309 112.381 125.394 112.635 125.517L115.071 126.49C115.691 126.779 116.001 127.153 116.001 127.611C115.973 127.936 115.873 128.25 115.708 128.533C114.497 130.841 111.997 131.997 108.209 132C105.432 132 103.382 131.272 102.058 129.815ZM110.52 119.671V119.164C110.576 118.482 110.383 117.803 109.976 117.25C109.752 117.032 109.484 116.864 109.188 116.758C108.893 116.652 108.578 116.611 108.265 116.637C107.963 116.61 107.659 116.652 107.376 116.758C107.093 116.864 106.837 117.032 106.629 117.25C106.242 117.811 106.061 118.487 106.117 119.164V119.671H110.52Z" fill="white"/>
<path d="M123.793 130.843C123.238 130.644 122.728 130.338 122.293 129.942C121.858 129.546 121.507 129.069 121.26 128.537C120.726 127.431 120.46 125.843 120.46 123.775V117.813H119.186C119.004 117.833 118.82 117.816 118.645 117.763C118.469 117.71 118.307 117.622 118.168 117.504C117.94 117.197 117.836 116.818 117.875 116.439V114.023C117.839 113.654 117.944 113.286 118.168 112.99C118.308 112.874 118.471 112.787 118.646 112.735C118.821 112.683 119.004 112.666 119.186 112.686H120.46V109.689C120.422 109.505 120.431 109.315 120.486 109.136C120.54 108.957 120.638 108.794 120.772 108.661C120.906 108.529 121.07 108.431 121.251 108.377C121.432 108.323 121.623 108.315 121.808 108.352H125.193C125.381 108.33 125.571 108.346 125.752 108.399C125.934 108.452 126.102 108.541 126.248 108.661C126.472 108.955 126.576 109.322 126.541 109.689V112.686H128.689C129.055 112.65 129.421 112.759 129.707 112.99C129.931 113.286 130.036 113.654 130 114.023V116.439C130.039 116.818 129.934 117.197 129.707 117.504C129.567 117.621 129.405 117.709 129.23 117.762C129.055 117.815 128.871 117.832 128.689 117.813H126.541V123.373C126.515 123.968 126.576 124.562 126.722 125.139C126.765 125.298 126.845 125.445 126.955 125.568C127.066 125.691 127.204 125.785 127.359 125.845C127.827 125.973 128.311 126.027 128.796 126.006C129.13 125.974 129.463 126.071 129.726 126.278C129.927 126.568 130.018 126.919 129.981 127.269V130.036C130.02 130.435 129.909 130.834 129.67 131.156C129.516 131.281 129.338 131.375 129.148 131.431C128.957 131.487 128.757 131.505 128.559 131.484C126.944 131.555 125.33 131.338 123.793 130.843Z" fill="white"/>
<path d="M109.609 43.2254V12.8823L109.669 12.8408C109.525 11.5268 109.386 10.2634 109.255 9.09693C108.996 6.61488 107.823 4.31479 105.961 2.63653C104.099 0.958259 101.678 0.0195824 99.1621 0L65.3255 0C40.22 0 19.0802 19.7062 17.904 45.0651C16.6162 72.2175 38.0628 94.7316 64.6235 94.7316C79.5008 94.7316 92.7928 87.6496 101.352 76.653C110.446 64.5868 109.576 48.56 109.576 48.56L109.609 43.2254ZM89.0177 59.1047C89.0734 62.8614 88.0806 66.5602 86.1491 69.7923C84.1495 73.0312 81.2414 75.622 77.7806 77.2478C74.1016 79.0552 69.7128 79.9604 64.6142 79.9635C56.8501 79.9635 50.8263 77.8657 46.5429 73.6699C42.2594 69.4742 40.1084 63.7 40.0898 56.3475V39.7996C40.0898 32.4471 42.2346 26.673 46.5243 22.4772C50.8139 18.2815 56.8377 16.1851 64.5956 16.1882C70.6798 16.1882 75.6622 17.4515 79.5427 19.9782C83.4232 22.5049 86.1755 26.1535 87.7996 30.924C88.0274 31.5304 88.1454 32.1719 88.1483 32.819C88.1483 34.0885 87.3083 34.9799 85.6284 35.4932L77.5435 37.9922C76.9901 38.2065 76.4033 38.3235 75.8094 38.338C75.5344 38.3429 75.2614 38.2917 75.0071 38.1879C74.7528 38.084 74.5227 37.9295 74.3309 37.734C73.8316 37.1628 73.4735 36.4839 73.2849 35.7514C72.5906 33.7412 71.5337 32.275 70.1141 31.3528C68.6946 30.4307 66.8845 29.9696 64.6839 29.9696C61.383 29.9696 59.0383 30.7627 57.6497 32.3487C56.2612 33.9348 55.5653 36.3939 55.5623 39.7259V56.4351C55.5623 59.7702 56.3015 62.2292 57.7799 63.8122C59.2583 65.3952 61.648 66.1852 64.9489 66.1821C70.9153 66.1821 73.8986 63.9705 73.8986 59.5473V56.6149H65.5533C64.2794 56.6149 63.41 56.3567 62.9451 55.8403C62.4802 55.3239 62.2524 54.4064 62.2524 53.0739V47.3013C62.2524 45.978 62.4802 45.0466 62.9451 44.498C63.41 43.9493 64.2794 43.6772 65.5533 43.6772H85.5447C86.8186 43.6772 87.7159 43.9539 88.2366 44.498C88.7573 45.042 89.0223 45.978 89.0223 47.3013L89.0177 59.1047Z" fill="white"/>
</g>
<defs>
<clipPath id="clip0_90_1699">
<rect width="130" height="132" fill="white"/>
</clipPath>
</defs>
</svg>
